<?xml version="1.0" encoding="utf-8"?>
<!-- Generator: Adobe Illustrator 19.0.0, SVG Export Plug-In . SVG Version: 6.00 Build 0)  -->
<svg version="1.1" xmlns="http://www.w3.org/2000/svg" xmlns:xlink="http://www.w3.org/1999/xlink" x="0px" y="0px"
	 viewBox="0 0 103 103" style="enable-background:new 0 0 103 103;" xml:space="preserve">
<style type="text/css">
	.st0{display:none;}
	.st1{stroke:#D3A22A;stroke-width:3;stroke-miterlimit:10;}
	.st2{fill:#FFFFFF;stroke:#000000;stroke-miterlimit:10;}
	.st3{fill:#D3A22A;}
</style>
<g id="Layer_3" class="st0">
</g>
<g id="Layer_4">
	<circle id="background_black_circle_1_" cx="51.5" cy="51.5" r="49.110531"/>
	<circle id="black_circle" class="st1" cx="51.5" cy="51.5" r="42.242558"/>
	<path id="XMLID_8_" class="st2" d="M70.749626,23.553316c0,0,2.828629,9.122221-2.88372,15.959436
		c-5.488491,6.569279-18.298367,11.262383-21.295658,16.480572c-6.659157,11.593407,1.383114,19.482216,1.383114,19.482216
		s-1.887566-7.596855,2.553749-12.911949c2.186489-2.616653,7.675339-6.194801,12.477737-10.435432
		c4.635818-4.093548,4.693329-8.144344,4.693329-8.144344s2.907425-2.312168,4.5214-5.816483
		c1.353287-2.928982,1.363197-8.30385,1.363197-8.30385s5.232468,7.233042-0.857246,16.564997
		c-3.719406,5.69968-11.139629,9.331207-18.557049,16.127308c-5.691822,5.21505-4.734978,14.064636-4.734978,14.064636
		s1.511395-9.215706,7.157845-13.812954c9.988537-8.132507,18.941578-11.198257,20.897808-18.828854
		C80.913193,30.544643,70.749626,23.553316,70.749626,23.553316z M60.883148,51.274239
		c-2.66058,2.53643-5.740971,3.981335-9.621502,7.340607c-3.880527,3.359276-5.008862,7.734047-5.008862,7.734047
		s0.350082-8.898872,6.881035-13.006447c7.34832-5.426533,11.386681-7.689243,11.386681-7.689243
		S63.543728,48.73782,60.883148,51.274239z"/>
	<path id="XMLID_3_" d="M83.744675,52.582294"/>
	<g id="XMLID_7_">
		<path id="XMLID_13_" class="st3" d="M64.445076,32.249847c-1.838604-2.254042-3.579941-3.27084-3.581612-3.270334
			c-0.013466,0.00407-0.422367,5.113523-3.150318,10.400164c-2.347958,4.264389-5.246296,6.856598-6.973789,8.374912
			c-1.707195,1.500477-3.322926,2.631351-4.646091,3.459335c-0.156357-0.464207-0.313385-0.930061-0.471909-1.399563
			c-0.870628-2.578167-1.741364-5.152847-2.611992-7.723797c-0.870628-2.570889-1.723606-5.089783-2.558838-7.557549
			c-0.835464-2.467335-1.628021-4.794418-2.378269-6.981253c-0.198441-0.561371-0.403435-1.030569-0.615818-1.407347
			c-0.212379-0.376776-0.456585-0.679478-0.732609-0.90873c-0.276028-0.228876-0.598175-0.391268-0.966206-0.487545
			c-0.368271-0.095905-0.806862-0.144043-1.316486-0.144043c-0.991112,0-2.322014,0.15163-3.992235,0.454271
			c-1.67057,0.303013-3.801064,0.764624-6.391722,1.385204l0.233597,1.950308
			c0.735952-0.118046,1.408489-0.210529,2.017275-0.277016c0.60854-0.066486,1.146765-0.099699,1.613842-0.099699
			c0.679571,0,1.234957,0.055416,1.666994,0.166185c0.431679,0.11083,0.771465,0.310289,1.019241,0.598375
			c0.247543,0.288149,0.421074,0.675997,0.520353,1.163605c0.098797,0.487545,0.148615,1.108126,0.148615,1.861679
			c0,1.167337-0.010605,2.534193-0.031937,4.100138c-0.021217,1.566315-0.060307,3.27282-0.116678,5.119633
			c-0.056854,1.847126-0.145403,3.797497-0.265541,5.850983c-0.120371,2.053864-0.27602,4.137207-0.467075,6.249966
			c-0.191164,2.113071-0.428453,4.229687-0.711393,6.349663c-0.283415,2.12035-0.619507,4.170418-1.008638,6.150208
			c-0.389605,1.980156-0.842491,3.852844-1.359152,5.618309c-0.516886,1.765717-1.107792,3.365242-1.773067,4.79821
			l0.297245,0.221664c0.268751,0.014549,0.495436,0.025627,0.679573,0.033211c0.183777,0.007339,0.339785,0.01107,0.467192,0.01107
			h0.637024c0.63703,0,1.185503-0.029732,1.645668-0.088562c0.459923-0.059212,0.849403-0.199524,1.167982-0.421188
			c0.318569-0.221535,0.583986-0.542961,0.796249-0.96402c0.212387-0.421059,0.392948-1.000839,0.541561-1.739838
			c0.148623-0.738625,0.283058-1.651154,0.403435-2.737076c0.120136-1.086044,0.251236-2.404701,0.392822-3.956093
			c0.169956-1.876167,0.33252-3.922878,0.488411-6.13913c0.155651-2.216251,0.289967-4.510124,0.403549-6.881554
			c0.113102-2.371429,0.204987-4.779613,0.276024-7.225117c0.070675-2.445194,0.10619-4.842621,0.10619-7.191845v-3.656937
			c0-0.502098-0.003693-0.971359-0.010605-1.407345c-0.007393-0.435612-0.010612-0.875393-0.010612-1.318657l0.148624-0.066486
			c0.240505,0.797901,0.527138,1.714153,0.860012,2.748207c0.332401,1.034363,0.725224,2.223904,1.178471,3.568245
			c0.396164,1.15247,0.845833,2.463852,1.348423,3.933887c0.502357,1.470352,1.033314,3.04015,1.592632,4.709583
			c0.559078,1.669872,1.139381,3.405857,1.741249,5.208324c0.601624,1.802784,1.199799,3.609047,1.794399,5.418793
			c0.399376,1.215809,0.793545,2.420727,1.183304,3.616409c0.305298-1.694962,0.963924-4.132057,2.460243-6.360283
			c0.902042-1.343269,2.094952-2.590427,2.170624-2.66901c0.62421-0.648258,0.961872-0.91235,2.038002-1.910625
			c0,0,1.220123-1.251514,2.563427-2.473202c4.130703-3.756748,6.400593-8.003391,6.400593-8.003391
			c0.954777-1.809967,2.210979-4.813095,2.557274-9.040739c0.616108,0.828226,1.188396,1.784372,1.63504,2.875494
			c1.949821,4.763313,1.27314,7.439754,1.27314,7.439754c0.451027-0.336639,0.937012-0.737236,1.434044-1.210835
			c0.412292-0.392868,0.772957-0.779526,1.086525-1.145458C67.291351,39.221375,66.283676,34.503891,64.445076,32.249847z"/>
		<path id="XMLID_15_" class="st3" d="M79.884048,72.165649c-0.467186,0.162704-0.881226,0.295677-1.242348,0.398918
			c-0.360878,0.103493-0.690056,0.181114-0.987305,0.232735c-0.29747,0.051994-0.583984,0.085205-0.860016,0.099762
			c-0.27626,0.014801-0.562767,0.022141-0.860016,0.022141c-0.807091,0-1.479523-0.162453-2.017509-0.48761
			c-0.537987-0.324783-0.966087-0.838387-1.284538-1.540321c-0.318695-0.701553-0.541565-1.606865-0.66909-2.714928
			c-0.127289-1.108192-0.190926-2.445259-0.190926-4.011444c0-2.363907,0.010483-4.632153,0.0317-6.804123
			c0.016197-1.658077,0.03875-3.289925,0.067337-4.896385c-1.616714,1.218807-3.390945,2.456299-5.276978,3.788998
			c-0.009239,0.71209-0.017563,1.417538-0.024826,2.115814c-0.014061,1.351994-0.024796,2.630096-0.031708,3.83419
			c-0.007385,1.204468-0.010727,2.264393-0.010727,3.180401v1.950302c0,1.743576,0.098923,3.206398,0.297249,4.388351
			c0.198074,1.182198,0.49913,2.135147,0.902679,2.858971c0.403313,0.724075,0.909355,1.244522,1.518135,1.562462
			c0.608551,0.317566,1.316719,0.47654,2.123589,0.47654c0.594475,0,1.210411-0.051994,1.847313-0.155113
			c0.637154-0.103622,1.323639-0.262589,2.059944-0.47654c0.735832-0.214325,1.532204-0.48761,2.388885-0.820107
			c0.856438-0.332367,1.794395-0.727554,2.813637-1.185677L79.884048,72.165649z"/>
	</g>
</g>
<g id="Layer_5" class="st0">
</g>
</svg>
