<?xml version="1.0" encoding="utf-8"?>
<!-- Generator: Adobe Illustrator 19.0.0, SVG Export Plug-In . SVG Version: 6.00 Build 0)  -->
<svg version="1.1" xmlns="http://www.w3.org/2000/svg" xmlns:xlink="http://www.w3.org/1999/xlink" x="0px" y="0px"
	 viewBox="0 0 547 547" style="enable-background:new 0 0 547 547;" xml:space="preserve">
<style type="text/css">
	.st0{fill:#FFFFFF;}
	.st1{fill:#D3A22A;}
</style>
<g id="Layer_3">
</g>
<g id="Layer_4">
	<path id="XMLID_8_" class="st0" d="M413.622162,11.945313c0,0,22.207092,71.616966-22.639557,125.294754
		c-43.089172,51.574265-143.657303,88.419022-167.188507,129.386124
		c-52.279877,91.017792,10.858597,152.951477,10.858597,152.951477s-14.818939-59.641602,20.049042-101.369446
		c17.165726-20.542938,60.257736-48.634308,97.960526-81.926788c36.39502-32.137726,36.846497-63.939835,36.846497-63.939835
		s22.825714-18.15242,35.496765-45.664192c10.624451-22.994911,10.70224-65.192078,10.70224-65.192078
		s41.079163,56.785336-6.730103,130.048904c-29.200439,44.747208-87.455322,73.257706-145.688171,126.612717
		c-44.685501,40.942444-37.173477,110.418976-37.173477,110.418976s11.865677-72.350861,56.194992-108.443085
		c78.418274-63.846893,148.707001-87.915558,164.065063-147.822067C493.414612,66.833008,413.622162,11.945313,413.622162,11.945313
		z M336.162201,229.577454c-20.887756,19.913071-45.071381,31.256775-75.536743,57.629822
		c-30.465347,26.373108-39.323715,60.718689-39.323715,60.718689s2.748459-69.863525,54.021835-102.111374
		c57.690369-42.602768,89.394836-60.366898,89.394836-60.366898S357.049927,209.664459,336.162201,229.577454z"/>
	<path id="XMLID_3_" d="M345.468414,129.945313"/>
	<g id="XMLID_7_">
		<path id="XMLID_13_" class="st1" d="M364.126251,80.220276c-14.43454-17.696106-28.105469-25.678802-28.118591-25.674835
			c-0.105713,0.031952-3.315948,40.145393-24.732605,81.649872c-18.433411,33.478973-41.187744,53.829956-54.75,65.75
			c-13.402893,11.779968-26.087708,20.658264-36.475647,27.15863c-1.227539-3.644409-2.460327-7.301758-3.704895-10.987732
			c-6.835144-20.240723-13.671143-40.454102-20.506287-60.638184c-6.835144-20.183594-13.531738-39.958984-20.088989-59.333008
			c-6.559082-19.370605-12.781311-37.640137-18.671387-54.808594c-1.557922-4.407227-3.167297-8.09082-4.834656-11.048828
			s-3.584595-5.334473-5.751587-7.134277c-2.167053-1.796875-4.696167-3.071777-7.58551-3.827637
			c-2.891235-0.75293-6.334534-1.130859-10.33551-1.130859c-7.781067,0-18.229736,1.19043-31.342346,3.566406
			c-13.115356,2.378906-29.841492,6.00293-50.180298,10.875l1.833923,15.311523
			c5.777832-0.926758,11.0578-1.652832,15.83728-2.174805c4.777527-0.521973,9.003052-0.782715,12.669983-0.782715
			c5.335205,0,9.695435,0.435059,13.08728,1.304688c3.389038,0.870117,6.056641,2.436035,8.001892,4.697754
			c1.94342,2.262207,3.305786,5.307129,4.085205,9.135254c0.775635,3.827637,1.166748,8.699707,1.166748,14.615723
			c0,9.164551-0.083252,19.895508-0.250732,32.189453c-0.166565,12.296875-0.47345,25.694336-0.916016,40.193359
			c-0.44635,14.501465-1.141541,29.813477-2.084717,45.935059c-0.945007,16.124512-2.166992,32.480469-3.666931,49.067383
			c-1.500793,16.589355-3.363708,33.206543-5.585022,49.850098c-2.225037,16.646484-4.863647,32.741211-7.91864,48.28418
			c-3.058716,15.545898-6.614258,30.248047-10.670471,44.108398c-4.057983,13.862305-8.697083,26.419922-13.920044,37.669922
			l2.333618,1.740234c2.109924,0.114258,3.889587,0.201172,5.335205,0.260742c1.44281,0.057617,2.667603,0.086914,3.667847,0.086914
			h5.00116c5.001221,0,9.30719-0.233398,12.919861-0.695313c3.610779-0.464844,6.668518-1.566406,9.169617-3.306641
			c2.501038-1.739258,4.584778-4.262695,6.251221-7.568359c1.667419-3.305664,3.084961-7.857422,4.251709-13.65918
			c1.166809-5.798828,2.222229-12.962891,3.167297-21.488281c0.943176-8.526367,1.972412-18.878906,3.083984-31.058594
			c1.33429-14.729492,2.610535-30.797852,3.834412-48.197266c1.221985-17.399414,2.276489-35.408203,3.168213-54.025879
			c0.887939-18.617676,1.609314-37.523926,2.166992-56.723145c0.554871-19.196777,0.833679-38.018555,0.833679-56.461914v-28.709961
			c0-3.941895-0.028992-7.625977-0.083252-11.048828c-0.058044-3.419922-0.083313-6.872559-0.083313-10.352539l1.166809-0.521973
			c1.888184,6.26416,4.138489,13.45752,6.751831,21.575684c2.609619,8.120605,5.693604,17.459473,9.251953,28.013672
			c3.110229,9.047852,6.640503,19.343262,10.586243,30.884277c3.943909,11.543457,8.112366,23.867676,12.503479,36.974121
			c4.389221,13.109863,8.945068,26.73877,13.670227,40.889648c4.723267,14.15332,9.419434,28.333984,14.087524,42.541992
			c3.135437,9.545105,6.22998,19.0047,9.289917,28.391785c2.396851-13.306824,7.567596-32.440063,19.314941-49.933472
			c7.081787-10.545776,16.447113-20.336975,17.041199-20.953918c4.900574-5.089355,7.551483-7.16272,16-15
			c0,0,9.578979-9.825409,20.125-19.416687c32.429443-29.493561,50.249939-62.833221,50.249939-62.833221
			c7.495789-14.209747,17.358032-37.786774,20.076721-70.977264c4.836975,6.502258,9.329895,14.008789,12.836426,22.575012
			c15.307678,37.395935,9.995178,58.408203,9.995178,58.408203c3.540955-2.642883,7.356323-5.787903,11.258423-9.506042
			c3.236877-3.084351,6.068359-6.119934,8.530151-8.992798C386.471893,134.952515,378.560791,97.916382,364.126251,80.220276z"/>
		<path id="XMLID_15_" class="st1" d="M485.334991,393.592285c-3.667847,1.277344-6.918396,2.321289-9.753479,3.131836
			c-2.833191,0.8125-5.417542,1.421875-7.75116,1.827148c-2.335388,0.408203-4.584778,0.668945-6.751831,0.783203
			c-2.168884,0.116211-4.418213,0.173828-6.751831,0.173828c-6.336365,0-11.615479-1.275391-15.839111-3.828125
			c-4.223633-2.549805-7.584595-6.582031-10.084717-12.092773c-2.502014-5.507813-4.251709-12.615234-5.252869-21.314453
			c-0.999329-8.700195-1.498962-19.197266-1.498962-31.493164c0-18.558594,0.082336-36.366211,0.248901-53.417969
			c0.127136-13.017273,0.304199-25.828613,0.528625-38.440674c-12.692566,9.568665-26.621704,19.283997-41.42865,29.746765
			c-0.07251,5.590515-0.137878,11.128845-0.194885,16.610901c-0.110413,10.614258-0.194641,20.648438-0.248901,30.101563
			c-0.057983,9.456055-0.084229,17.777344-0.084229,24.96875v15.311523c0,13.688477,0.776611,25.172852,2.333618,34.452148
			c1.555054,9.28125,3.918579,16.762695,7.086792,22.445313c3.166321,5.68457,7.139221,9.770508,11.91864,12.266602
			c4.777588,2.493164,10.337341,3.741211,16.671875,3.741211c4.667175,0,9.502747-0.408203,14.502991-1.217773
			c5.002136-0.813477,10.391602-2.061523,16.172241-3.741211c5.776855-1.682617,12.029053-3.828125,18.7547-6.438477
			c6.723755-2.609375,14.087524-5.711914,22.089417-9.308594L485.334991,393.592285z"/>
	</g>
</g>
<g id="Layer_5">
	<g id="XMLID_39_">
		<path id="XMLID_64_" class="st1" d="M222.419586,528.188477h-5.500977v5.102539h6.130859v1.532227h-7.95752v-14.151367h7.642578
			v1.533203h-5.815918v4.47168h5.500977V528.188477z"/>
		<path id="XMLID_53_" class="st1" d="M229.539703,532.597656c0.818848,0.503906,2.015625,0.923828,3.275391,0.923828
			c1.868652,0,2.960449-0.986328,2.960449-2.414063c0-1.323242-0.755859-2.079102-2.666504-2.814453
			c-2.30957-0.818359-3.737305-2.015625-3.737305-4.009766c0-2.205078,1.82666-3.841797,4.577148-3.841797
			c1.44873,0,2.498535,0.335938,3.128418,0.692383l-0.503906,1.491211c-0.461914-0.251953-1.406738-0.671875-2.6875-0.671875
			c-1.931641,0-2.666504,1.154297-2.666504,2.120117c0,1.323242,0.86084,1.973633,2.813477,2.729492
			c2.393555,0.923828,3.611328,2.078125,3.611328,4.157227c0,2.183594-1.616699,4.073242-4.955078,4.073242
			c-1.364746,0-2.855469-0.398438-3.611328-0.902344L229.539703,532.597656z"/>
		<path id="XMLID_51_" class="st1" d="M247.200348,522.225586h-4.304199v-1.553711h10.477051v1.553711h-4.325195v12.597656
			h-1.847656V522.225586z"/>
		<path id="XMLID_49_" class="st1" d="M267.486481,534.823242v-1.133789l1.44873-1.40625
			c3.48584-3.318359,5.060059-5.082031,5.081543-7.138672c0-1.386719-0.671875-2.666992-2.708984-2.666992
			c-1.23877,0-2.267578,0.629883-2.897461,1.155273l-0.587891-1.302734c0.944824-0.796875,2.288574-1.384766,3.863281-1.384766
			c2.939453,0,4.178711,2.015625,4.178711,3.967773c0,2.519531-1.827148,4.555664-4.703125,7.327148l-1.092285,1.007813v0.042969
			h6.131348v1.532227H267.486481z"/>
		<path id="XMLID_46_" class="st1" d="M291.698395,527.852539c0,4.639648-1.722656,7.202148-4.746094,7.202148
			c-2.666016,0-4.47168-2.499023-4.513672-7.013672c0-4.576172,1.973633-7.095703,4.745117-7.095703
			C290.059723,520.945313,291.698395,523.505859,291.698395,527.852539z M284.286285,528.0625
			c0,3.548828,1.091797,5.564453,2.771484,5.564453c1.889648,0,2.792969-2.205078,2.792969-5.69043
			c0-3.359375-0.861328-5.563477-2.771484-5.563477C285.462067,522.373047,284.286285,524.345703,284.286285,528.0625z"/>
		<path id="XMLID_44_" class="st1" d="M301.778473,522.897461h-0.041992l-2.37207,1.280273l-0.357422-1.40625l2.981445-1.595703
			h1.575195v13.647461h-1.785156V522.897461z"/>
		<path id="XMLID_40_" class="st1" d="M312.741364,531.359375c0-1.722656,1.02832-2.939453,2.708008-3.654297l-0.020508-0.0625
			c-1.511719-0.713867-2.163086-1.889648-2.163086-3.06543c0-2.163086,1.827148-3.631836,4.219727-3.631836
			c2.646484,0,3.96875,1.658203,3.96875,3.359375c0,1.154297-0.566406,2.392578-2.246094,3.191406v0.0625
			c1.700195,0.671875,2.75,1.869141,2.75,3.527344c0,2.373047-2.037109,3.96875-4.640625,3.96875
			C314.462067,535.054688,312.741364,533.353516,312.741364,531.359375z M320.08902,531.275391
			c0-1.65918-1.154297-2.457031-3.001953-2.982422c-1.595703,0.462891-2.457031,1.511719-2.457031,2.814453
			c-0.0625,1.384766,0.987305,2.603516,2.730469,2.603516C319.018707,533.710938,320.08902,532.681641,320.08902,531.275391z
			 M315.008942,524.451172c0,1.365234,1.02832,2.099609,2.603516,2.519531c1.175781-0.398438,2.078125-1.238281,2.078125-2.477539
			c0-1.091797-0.650391-2.225586-2.30957-2.225586C315.848785,522.267578,315.008942,523.275391,315.008942,524.451172z"/>
	</g>
	<g id="XMLID_17_">
		<path id="XMLID_36_" class="st1" d="M44.446522,484.905182l-3.416077,10.34613H36.63797l11.17646-32.893799h5.124378
			l11.224636,32.893799h-4.539063l-3.513462-10.34613H44.446522z M55.232426,481.585968l-3.221317-9.467651
			c-0.731907-2.147552-1.219845-4.099304-1.707783-6.00235h-0.097897c-0.487938,1.951752-1.024567,3.953217-1.659092,5.953674
			l-3.221321,9.516327H55.232426z"/>
		<path id="XMLID_34_" class="st1" d="M110.471397,479.828979H97.685059v11.85968h14.250671v3.562653H93.439171v-32.893799
			h17.764137v3.562653h-13.51825v10.395874h12.786339V479.828979z"/>
		<path id="XMLID_32_" class="st1" d="M141.309357,490.077728c1.90358,1.171661,4.685135,2.147552,7.613266,2.147552
			c4.343796,0,6.881378-2.29361,6.881378-5.611786c0-3.074738-1.756989-4.831726-6.198151-6.540039
			c-5.368347-1.903046-8.687057-4.685638-8.687057-9.321564c0-5.123871,4.245895-8.93103,10.639328-8.93103
			c3.367386,0,5.807587,0.781128,7.271912,1.610931l-1.171661,3.464264c-1.073776-0.585327-3.269501-1.561218-6.246841-1.561218
			c-4.489853,0-6.198151,2.684174-6.198151,4.929108c0,3.074738,2.000946,4.58725,6.540009,6.344238
			c5.563629,2.147522,8.393875,4.831696,8.393875,9.663422c0,5.075165-3.757431,9.467651-11.517288,9.467651
			c-3.172119,0-6.637405-0.927185-8.394394-2.098846L141.309357,490.077728z"/>
		<path id="XMLID_30_" class="st1" d="M196.646744,465.968872h-10.004791v-3.611359h24.352844v3.611359h-10.053482v29.28244
			h-4.294571V465.968872z"/>
		<path id="XMLID_28_" class="st1" d="M243.345779,462.357513v13.762726h15.909775v-13.762726h4.294556v32.893799h-4.294556
			v-15.422333h-15.909775v15.422333h-4.245895v-32.893799H243.345779z"/>
		<path id="XMLID_26_" class="st1" d="M312.396698,479.828979h-12.786865v11.85968h14.250671v3.562653h-18.496033v-32.893799
			h17.763611v3.562653h-13.51825v10.395874h12.786865V479.828979z"/>
		<path id="XMLID_24_" class="st1" d="M350.847412,465.968872h-10.00531v-3.611359h24.352325v3.611359h-10.052979v29.28244
			h-4.294037V465.968872z"/>
		<path id="XMLID_22_" class="st1" d="M397.54541,462.357513v32.893799h-4.246399v-32.893799H397.54541z"/>
		<path id="XMLID_20_" class="st1" d="M452.396393,494.17807c-1.562225,0.78006-4.685638,1.561188-8.687561,1.561188
			c-9.271851,0-16.251099-5.856293-16.251099-16.641663c0-10.297455,6.979248-17.276733,17.178284-17.276733
			c4.100342,0,6.686096,0.87851,7.809082,1.463837l-1.024567,3.465271c-1.610931-0.781097-3.904541-1.366425-6.63739-1.366425
			c-7.7117,0-12.835571,4.929108-12.835571,13.566925c0,8.053558,4.635925,13.226105,12.639771,13.226105
			c2.586792,0,5.22226-0.536621,6.930573-1.366425L452.396393,494.17807z"/>
		<path id="XMLID_18_" class="st1" d="M481.574219,490.077728c1.903076,1.171661,4.685669,2.147552,7.613281,2.147552
			c4.343781,0,6.880859-2.29361,6.880859-5.611786c0-3.074738-1.755951-4.831726-6.197113-6.540039
			c-5.368347-1.903046-8.687561-4.685638-8.687561-9.321564c0-5.123871,4.246399-8.93103,10.639313-8.93103
			c3.367889,0,5.807587,0.781128,7.271393,1.610931l-1.170624,3.464264c-1.07431-0.585327-3.270538-1.561218-6.246857-1.561218
			c-4.489838,0-6.198151,2.684174-6.198151,4.929108c0,3.074738,2.000458,4.58725,6.539001,6.344238
			c5.564148,2.147522,8.394379,4.831696,8.394379,9.663422c0,5.075165-3.757416,9.467651-11.517822,9.467651
			c-3.172089,0-6.636353-0.927185-8.393341-2.098846L481.574219,490.077728z"/>
	</g>
	<g id="XMLID_12_">
		<rect id="XMLID_16_" x="33.650055" y="528.13092" class="st1" width="172.666687" height="3.758972"/>
		<rect id="XMLID_14_" x="330.733368" y="528.13092" class="st1" width="172.666687" height="3.758972"/>
	</g>
</g>
</svg>
